<?xml version="1.0" encoding="UTF-8" standalone="no"?>
<svg
   xmlns:dc="http://purl.org/dc/elements/1.1/"
   xmlns:cc="http://creativecommons.org/ns#"
   xmlns:rdf="http://www.w3.org/1999/02/22-rdf-syntax-ns#"
   xmlns:svg="http://www.w3.org/2000/svg"
   xmlns="http://www.w3.org/2000/svg"
   xmlns:sodipodi="http://sodipodi.sourceforge.net/DTD/sodipodi-0.dtd"
   xmlns:inkscape="http://www.inkscape.org/namespaces/inkscape"
   version="1.1"
   id="svg2"
   xml:space="preserve"
   width="477.26666"
   height="148.37334"
   viewBox="0 0 477.26666 148.37334"
   sodipodi:docname="citrix-logo-black.eps"><metadata
     id="metadata8"><rdf:RDF><cc:Work
         rdf:about=""><dc:format>image/svg+xml</dc:format><dc:type
           rdf:resource="http://purl.org/dc/dcmitype/StillImage" /></cc:Work></rdf:RDF></metadata><defs
     id="defs6" /><sodipodi:namedview
     pagecolor="#ffffff"
     bordercolor="#666666"
     borderopacity="1"
     objecttolerance="10"
     gridtolerance="10"
     guidetolerance="10"
     inkscape:pageopacity="0"
     inkscape:pageshadow="2"
     inkscape:window-width="640"
     inkscape:window-height="480"
     id="namedview4" /><g
     id="g10"
     inkscape:groupmode="layer"
     inkscape:label="ink_ext_XXXXXX"
     transform="matrix(1.3333333,0,0,-1.3333333,0,148.37333)"><g
       id="g12"
       transform="scale(0.1)"><path
         d="m 0.00390625,425.832 c 0,251.082 168.46509375,425.895 408.42609375,425.895 162.058,0 293.98,-81.067 346.383,-206.575 6.406,-12.679 7.957,-23.808 7.957,-36.55 0,-28.602 -22.254,-47.688 -50.848,-47.688 -22.258,0 -41.281,12.75 -50.856,38.176 -41.273,101.703 -135.019,160.512 -252.636,160.512 -179.602,0 -305.106,-136.704 -305.106,-333.77 0,-195.445 123.953,-332.082 305.106,-332.082 117.617,0 206.574,57.184 254.254,176.355 9.511,23.875 25.429,38.172 49.238,38.172 28.594,0 50.848,-22.254 50.848,-50.847 0,-11.133 -1.551,-19.094 -6.34,-33.391 C 705.578,87.3984 575.281,0 408.43,0 166.852,0 0.00390625,174.813 0.00390625,425.832"
         style="fill:#100f0d;fill-opacity:1;fill-rule:nonzero;stroke:none"
         id="path14" /><path
         d="m 1363.04,69.8711 c 0,-34.9297 -19.09,-57.1914 -52.41,-57.1914 -33.38,0 -50.85,22.2617 -50.85,57.1914 l -0.03,985.6289 c 0,36.55 19.09,57.25 52.47,57.25 33.38,0 50.85,-20.7 50.85,-57.25 V 831.09 h 177.82 c 31.76,0 50.85,-17.473 50.85,-46.063 0,-28.664 -19.09,-46.129 -50.85,-46.129 h -177.82 l -0.03,-669.0269"
         style="fill:#100f0d;fill-opacity:1;fill-rule:nonzero;stroke:none"
         id="path16" /><path
         d="m 2159,775.449 c 0,-28.597 -20.71,-49.23 -50.85,-49.23 -11.13,0 -22.26,3.168 -38.18,11.125 -23.81,11.129 -49.23,17.469 -82.61,17.469 -109.66,0 -181.15,-95.364 -181.15,-216.157 V 69.8711 c 0,-36.4922 -17.47,-57.1914 -50.85,-57.1914 -33.39,0 -52.47,20.6992 -52.47,57.1914 V 781.789 c 0,36.551 19.08,57.254 52.47,57.254 33.38,0 50.85,-20.703 50.85,-57.254 v -20.637 c 44.51,58.809 114.39,90.575 192.28,90.575 60.36,0 103.25,-12.684 133.47,-31.766 17.47,-11.125 27.04,-25.426 27.04,-44.512"
         style="fill:#100f0d;fill-opacity:1;fill-rule:nonzero;stroke:none"
         id="path18" /><path
         d="m 2263.81,781.789 c 0,36.551 19.01,57.254 52.4,57.254 33.38,0 50.85,-20.703 50.85,-57.254 V 69.8711 c 0,-34.9297 -19.08,-57.1914 -52.4,-57.1914 -33.39,0 -50.85,22.2617 -50.85,57.1914 V 781.789"
         style="fill:#100f0d;fill-opacity:1;fill-rule:nonzero;stroke:none"
         id="path20" /><path
         d="m 944.223,781.789 c 0,36.551 19.019,57.254 52.406,57.254 33.381,0 50.851,-20.703 50.851,-57.254 V 69.8711 c 0,-34.9297 -19.09,-57.1914 -52.406,-57.1914 -33.383,0 -50.851,22.2617 -50.851,57.1914 V 781.789"
         style="fill:#100f0d;fill-opacity:1;fill-rule:nonzero;stroke:none"
         id="path22" /><path
         d="m 1077.01,1031.59 c 0,-44.824 -36.33,-81.164 -81.158,-81.164 -44.825,0 -81.161,36.34 -81.161,81.164 0,44.82 36.336,81.16 81.161,81.16 44.828,0 81.158,-36.34 81.158,-81.16"
         style="fill:#100f0d;fill-opacity:1;fill-rule:nonzero;stroke:none"
         id="path24" /><path
         d="M 2904.09,362.301 2622.82,33.3789 c -11.12,-14.3594 -25.42,-20.6992 -41.33,-20.6992 -28.6,0 -49.24,22.2617 -49.24,47.6797 0,11.1289 3.17,23.8711 14.3,36.5508 l 293.98,332.1248 -282.85,324.16 c -11.13,12.743 -17.47,23.871 -17.47,38.168 0,25.426 20.64,47.68 50.85,47.68 15.85,0 26.98,-6.398 39.72,-20.703 L 2904.09,497.383 3177.4,818.34 c 12.75,14.305 23.88,20.703 39.73,20.703 30.21,0 50.85,-22.254 50.85,-47.68 0,-14.297 -6.34,-25.425 -17.47,-38.168 L 2967.66,429.035 3261.64,96.9102 c 11.13,-12.6797 14.3,-25.4219 14.3,-36.5508 0,-25.418 -20.64,-47.6797 -49.24,-47.6797 -15.92,0 -30.21,6.3398 -41.34,20.6992 L 2904.09,362.301"
         style="fill:#100f0d;fill-opacity:1;fill-rule:nonzero;stroke:none"
         id="path26" /><path
         d="M 3579.5,108.691 V 20.6406 h -11.71 v 56.0508 l 1.31,16.5195 h -0.25 l -2.13,-6.6718 -27.49,-65.8985 h -9.08 l -27.49,65.8985 -2.39,6.6718 h -0.26 l 1.32,-16.5195 V 20.6406 h -11.75 v 88.0504 h 14.69 l 26.14,-63.4918 4.28,-10.9492 h 0.26 l 3.73,10.9492 26.69,63.4918 z m -106.46,-9.3394 h -29.88 v -78.711 h -12.02 v 78.711 h -30.42 v 9.3394 h 72.32 v -9.3394"
         style="fill:#100f0d;fill-opacity:1;fill-rule:nonzero;stroke:none"
         id="path28" /><path
         d="m 2985.26,1031.59 c 0,-44.824 -36.34,-81.164 -81.17,-81.164 -44.82,0 -81.16,36.34 -81.16,81.164 0,44.82 36.34,81.16 81.16,81.16 44.83,0 81.17,-36.34 81.17,-81.16"
         style="fill:#100f0d;fill-opacity:1;fill-rule:nonzero;stroke:none"
         id="path30" /></g></g></svg>
