<?xml version="1.0" encoding="UTF-8" standalone="no"?>
<!DOCTYPE svg PUBLIC "-//W3C//DTD SVG 1.1//EN" "http://www.w3.org/Graphics/SVG/1.1/DTD/svg11.dtd">
<svg version="1.1" xmlns="http://www.w3.org/2000/svg" xmlns:xlink="http://www.w3.org/1999/xlink" preserveAspectRatio="xMidYMid meet" viewBox="0 0 80 80" width="80" height="80"><defs><path d="M76.08 34.05C76.08 35.09 75.27 35.93 74.29 35.93C73.3 35.93 72.49 35.09 72.49 34.05C72.49 33 73.3 32.16 74.29 32.16C75.27 32.16 76.08 33 76.08 34.05ZM74.29 32.41C73.43 32.41 72.73 33.15 72.73 34.05C72.73 34.95 73.43 35.68 74.29 35.68C75.15 35.68 75.84 34.95 75.84 34.05C75.84 33.15 75.15 32.41 74.29 32.41Z" id="dxNgF6Pu3"></path><path d="M74.77 35.07C74.75 35 74.74 34.93 74.74 34.81C74.74 34.37 74.61 34.25 74.25 34.25C74.22 34.25 74.11 34.25 73.9 34.25L73.9 35.07L73.59 35.07L73.59 33C73.98 33 74.2 33 74.25 33C74.67 33 75.09 33.1 75.09 33.6C75.09 33.96 74.84 34.07 74.61 34.11C74.9 34.18 75.06 34.36 75.06 34.73C75.06 34.87 75.07 35.02 75.09 35.07C75.03 35.07 74.8 35.07 74.77 35.07ZM74.25 33.25C74.22 33.25 74.11 33.25 73.9 33.25L73.9 34C74.11 34 74.22 34 74.25 34C74.57 34 74.75 33.87 74.75 33.6C74.75 33.36 74.56 33.25 74.25 33.25Z" id="chY9wJyX2"></path><path d="M71.92 47.78L66.6 47.78L64.13 43.19L61.01 47.78L55.63 47.78L61.56 39.35L57.02 32.22L62.44 32.22L64.2 35.52L66.22 32.22L71.67 32.22L66.78 39.38L71.92 47.78Z" id="c16BNAyDWt"></path><path d="M54.87 32.22L54.87 32.22L50.43 32.22L54.87 32.22Z" id="bVStmEh4u"></path><path d="M55.43 52.01C55.43 53.63 54.18 54.94 52.65 54.94C51.11 54.94 49.87 53.62 49.87 52.01C49.87 50.39 51.11 49.09 52.65 49.09C54.19 49.09 55.43 50.39 55.43 52.01Z" id="b2j5Q22ZNe"></path><path d="M49.45 47.78L43.86 47.78L41.04 43.13L41.04 47.78L36.6 47.78L36.6 32.22C40.09 32.22 42.03 32.22 42.41 32.22C44.14 32.22 45.54 32.73 46.46 33.69C47.28 34.56 47.69 35.72 47.69 37.17C47.69 39.31 46.62 40.97 44.93 41.58C45.53 42.4 47.04 44.47 49.45 47.78ZM43.33 36.21C42.8 35.66 41.79 35.59 41.04 35.58C41.04 35.94 41.04 38.88 41.04 39.24C42.93 39.22 43.72 38.69 43.72 37.41C43.72 36.88 43.59 36.5 43.33 36.21Z" id="g4Sj1CaAlM"></path><path d="M35.4 36.28L32.03 36.28L32.03 47.78L27.61 47.78L27.61 36.28L24.24 36.28L24.24 32.22L35.4 32.22L35.4 36.28Z" id="a1ct1a1cbE"></path><path d="M23.05 47.78L18.61 47.78L18.61 45.64L18.61 34.36L18.61 32.22L23.05 32.22L23.05 47.78Z" id="akEiHes6V"></path><path d="M23.61 27.98C23.61 29.6 22.36 30.92 20.83 30.92C19.29 30.92 18.05 29.6 18.05 27.98C18.05 26.38 19.29 25.06 20.83 25.06C22.36 25.06 23.61 26.38 23.61 27.98Z" id="d2G3otVK04"></path><path d="M14.92 38.33C14.27 37.19 12.98 36.45 11.67 36.45C9.81 36.45 8.44 38.04 8.44 40C8.44 41.96 9.81 43.55 11.67 43.55C12.98 43.55 14.27 42.81 14.92 41.67C15.16 42.07 17.03 45.25 17.26 45.65C15.85 47.19 13.87 48.15 11.67 48.15C7.39 48.15 3.92 44.51 3.92 40C3.92 35.5 7.39 31.84 11.67 31.84C13.87 31.84 15.85 32.81 17.26 34.36C16.79 35.16 15.16 37.94 14.92 38.33Z" id="d2d6o6p98n"></path><path d="M54.87 47.78L50.43 47.78L50.43 45.64L50.43 34.36L50.43 32.22L54.87 32.22L54.87 47.78Z" id="b3L50FTLd9"></path></defs><g><g><g><use xlink:href="#dxNgF6Pu3" opacity="1" fill="#000000" fill-opacity="1"></use><g><use xlink:href="#dxNgF6Pu3" opacity="1" fill-opacity="0" stroke="#000000" stroke-width="1" stroke-opacity="0"></use></g></g><g><use xlink:href="#chY9wJyX2" opacity="1" fill="#000000" fill-opacity="1"></use><g><use xlink:href="#chY9wJyX2" opacity="1" fill-opacity="0" stroke="#000000" stroke-width="1" stroke-opacity="0"></use></g></g><g><use xlink:href="#c16BNAyDWt" opacity="1" fill="#000000" fill-opacity="1"></use><g><use xlink:href="#c16BNAyDWt" opacity="1" fill-opacity="0" stroke="#000000" stroke-width="1" stroke-opacity="0"></use></g></g><g><use xlink:href="#bVStmEh4u" opacity="1" fill="#000000" fill-opacity="1"></use><g><use xlink:href="#bVStmEh4u" opacity="1" fill-opacity="0" stroke="#000000" stroke-width="1" stroke-opacity="0"></use></g></g><g><use xlink:href="#b2j5Q22ZNe" opacity="1" fill="#000000" fill-opacity="1"></use><g><use xlink:href="#b2j5Q22ZNe" opacity="1" fill-opacity="0" stroke="#000000" stroke-width="1" stroke-opacity="0"></use></g></g><g><use xlink:href="#g4Sj1CaAlM" opacity="1" fill="#000000" fill-opacity="1"></use><g><use xlink:href="#g4Sj1CaAlM" opacity="1" fill-opacity="0" stroke="#000000" stroke-width="1" stroke-opacity="0"></use></g></g><g><use xlink:href="#a1ct1a1cbE" opacity="1" fill="#000000" fill-opacity="1"></use><g><use xlink:href="#a1ct1a1cbE" opacity="1" fill-opacity="0" stroke="#000000" stroke-width="1" stroke-opacity="0"></use></g></g><g><use xlink:href="#akEiHes6V" opacity="1" fill="#000000" fill-opacity="1"></use><g><use xlink:href="#akEiHes6V" opacity="1" fill-opacity="0" stroke="#000000" stroke-width="1" stroke-opacity="0"></use></g></g><g><use xlink:href="#d2G3otVK04" opacity="1" fill="#000000" fill-opacity="1"></use><g><use xlink:href="#d2G3otVK04" opacity="1" fill-opacity="0" stroke="#000000" stroke-width="1" stroke-opacity="0"></use></g></g><g><use xlink:href="#d2d6o6p98n" opacity="1" fill="#000000" fill-opacity="1"></use><g><use xlink:href="#d2d6o6p98n" opacity="1" fill-opacity="0" stroke="#000000" stroke-width="1" stroke-opacity="0"></use></g></g><g><use xlink:href="#b3L50FTLd9" opacity="1" fill="#000000" fill-opacity="1"></use><g><use xlink:href="#b3L50FTLd9" opacity="1" fill-opacity="0" stroke="#000000" stroke-width="1" stroke-opacity="0"></use></g></g></g></g></svg>