<?xml version="1.0" encoding="UTF-8" standalone="no"?>
<!DOCTYPE svg PUBLIC "-//W3C//DTD SVG 1.1//EN" "http://www.w3.org/Graphics/SVG/1.1/DTD/svg11.dtd">
<svg version="1.1" xmlns="http://www.w3.org/2000/svg" xmlns:xlink="http://www.w3.org/1999/xlink" preserveAspectRatio="xMidYMid meet" viewBox="0 0 80 80" width="80" height="80"><defs><path d="M48.73 31.66C53.65 31.66 56.74 34.93 56.74 39.51C56.74 44.11 53.65 47.37 48.73 47.37C48.41 47.37 46.8 47.37 43.9 47.37L43.9 31.66L43.9 31.66C46.8 31.66 48.41 31.66 48.73 31.66ZM54.37 39.51C54.37 35.97 52.25 34.04 48.82 34.04C48.65 34.04 47.81 34.04 46.29 34.04L46.29 44.98L48.82 44.98L48.82 44.98C52.52 43.72 54.37 41.89 54.37 39.51Z" id="i2mhCxLIlv"></path><path d="M66.73 38.79L66.73 41.13C69.92 41.13 71.68 41.13 72.04 41.13C71.87 42.32 71.46 43.24 70.83 43.87C70.05 44.65 68.81 45.52 66.66 45.52C63.33 45.52 60.73 42.84 60.73 39.51C60.73 36.18 63.33 33.51 66.66 33.51C68.45 33.51 69.76 34.21 70.72 35.11C70.88 34.95 72.15 33.68 72.31 33.52C70.97 32.24 69.16 31.24 66.66 31.24C62.1 31.24 58.28 34.96 58.28 39.51C58.28 44.07 62.1 47.78 66.66 47.78C69.12 47.78 70.97 46.97 72.42 45.46C73.92 43.96 74.38 41.86 74.38 40.18C74.39 39.65 74.34 39.21 74.27 38.79C74.27 38.79 74.27 38.79 74.27 38.79L74.27 38.79L66.73 38.79Z" id="a9sEA390d"></path><path d="M34.4 38.79L34.4 41.13C37.58 41.13 39.35 41.13 39.7 41.13C39.53 42.32 39.12 43.24 38.49 43.87C37.71 44.65 36.48 45.52 34.32 45.52C30.99 45.52 28.39 42.84 28.39 39.51C28.39 36.18 30.99 33.51 34.32 33.51C36.11 33.51 37.42 34.21 38.39 35.11C38.55 34.95 39.82 33.68 39.98 33.52C38.63 32.24 36.83 31.24 34.32 31.24C29.77 31.24 25.95 34.96 25.95 39.51C25.95 44.07 29.77 47.78 34.32 47.78C36.78 47.78 38.63 46.97 40.08 45.46C41.58 43.96 42.04 41.86 42.04 40.18C42.05 39.65 42.01 39.21 41.93 38.79C41.93 38.79 41.93 38.79 41.93 38.79L41.93 38.79L34.4 38.79Z" id="bgWXGGC8E"></path><path d="M13.28 43.13L9.26 50.1L12.7 50.1L15 46.13L14.96 46.04L14.96 46.04L13.28 43.13Z" id="e11TGn820"></path><path d="M13.28 43.13L9.26 50.1L5.62 50.1L11.47 40L11.47 40L13.28 43.13Z" id="b2Ne0PoFJG"></path><path d="M5.62 29.9L15 46.13L16.82 42.98L16.82 42.98L9.26 29.9L9.26 29.9L5.62 29.9Z" id="a1u72fvVJ"></path><path d="M18.26 40C18.26 39.66 18.17 39.34 18 39.05C17.65 38.44 15.88 35.39 12.7 29.9L9.26 29.9L16.82 42.98L18 40.95L18 40.95C18.17 40.54 18.26 40.22 18.26 40Z" id="bagFytCeP"></path></defs><g><g><g><use xlink:href="#i2mhCxLIlv" opacity="1" fill="#757575" fill-opacity="1"></use><g><use xlink:href="#i2mhCxLIlv" opacity="1" fill-opacity="0" stroke="#000000" stroke-width="1" stroke-opacity="0"></use></g></g><g><use xlink:href="#a9sEA390d" opacity="1" fill="#757575" fill-opacity="1"></use><g><use xlink:href="#a9sEA390d" opacity="1" fill-opacity="0" stroke="#000000" stroke-width="1" stroke-opacity="0"></use></g></g><g><use xlink:href="#bgWXGGC8E" opacity="1" fill="#757575" fill-opacity="1"></use><g><use xlink:href="#bgWXGGC8E" opacity="1" fill-opacity="0" stroke="#000000" stroke-width="1" stroke-opacity="0"></use></g></g><g><use xlink:href="#e11TGn820" opacity="1" fill="#ffc107" fill-opacity="1"></use><g><use xlink:href="#e11TGn820" opacity="1" fill-opacity="0" stroke="#000000" stroke-width="1" stroke-opacity="0"></use></g></g><g><use xlink:href="#b2Ne0PoFJG" opacity="1" fill="#0f9d58" fill-opacity="1"></use><g><use xlink:href="#b2Ne0PoFJG" opacity="1" fill-opacity="0" stroke="#000000" stroke-width="1" stroke-opacity="0"></use></g></g><g><use xlink:href="#a1u72fvVJ" opacity="1" fill="#4285f4" fill-opacity="1"></use><g><use xlink:href="#a1u72fvVJ" opacity="1" fill-opacity="0" stroke="#000000" stroke-width="1" stroke-opacity="0"></use></g></g><g><use xlink:href="#bagFytCeP" opacity="1" fill="#db4437" fill-opacity="1"></use><g><use xlink:href="#bagFytCeP" opacity="1" fill-opacity="0" stroke="#000000" stroke-width="1" stroke-opacity="0"></use></g></g></g></g></svg>