<?xml version="1.0" encoding="UTF-8" standalone="no"?>
<!DOCTYPE svg PUBLIC "-//W3C//DTD SVG 1.1//EN" "http://www.w3.org/Graphics/SVG/1.1/DTD/svg11.dtd">
<svg version="1.1" xmlns="http://www.w3.org/2000/svg" xmlns:xlink="http://www.w3.org/1999/xlink" preserveAspectRatio="xMidYMid meet" viewBox="0 0 80 80" width="80" height="80"><defs><path d="M20.85 56.09C21.02 57.38 21.31 59.9 21.55 61.19C22.84 62.24 24.24 63.24 25.77 64.12C39.13 71.74 56.18 67.11 63.85 53.87C64.91 52.05 65.73 50.12 66.31 48.18C54.24 58.85 36.37 62.07 20.85 56.09" id="dzSuhX8dt"></path><path d="M63.21 48.18C64.26 47.42 66.31 45.9 67.31 45.02C67.6 43.38 67.78 41.68 67.78 39.92C67.78 24.63 55.36 12.21 39.89 12.21C37.78 12.21 35.67 12.44 33.68 12.91C49.09 18.07 60.75 31.9 63.21 48.18" id="g90BDfu9D"></path><path d="M36.02 15.78C34.79 15.26 32.51 14.2 31.27 13.79C29.69 14.32 28.11 15.02 26.59 15.84C13.11 23.28 8.25 40.16 15.75 53.52C16.8 55.39 18.03 57.03 19.38 58.55C16.39 42.68 22.84 25.86 36.02 15.78" id="a8BbAIJhz"></path><path d="M30.28 31.66L30.28 48.3L26.47 48.3L26.47 31.66L30.28 31.66ZM36.55 48.59C39.71 48.59 42.82 47.42 42.82 43.09C42.82 37.05 36.08 38.87 36.08 36.17C36.08 34.71 37.66 34.65 38.66 34.65C39.77 34.65 40.82 34.88 41.82 35.41C41.84 35.07 42.03 32.3 42.06 31.95C41.12 31.54 39.71 31.31 38.36 31.31C35.49 31.31 32.15 32.42 32.15 36.41C32.15 42.44 38.95 40.51 38.95 43.61C38.95 44.96 37.78 45.25 36.61 45.25C35.02 45.25 33.68 44.79 32.68 44.14C32.65 44.39 32.52 45.64 32.27 47.89C34.22 48.36 35.65 48.59 36.55 48.59ZM46.45 48.3L47.56 44.73L52.95 44.73L54.01 48.3L58.17 48.3L52.37 31.66L48.27 31.66L42.58 48.3L46.45 48.3ZM48.5 41.62L50.32 35.12L50.37 35.12L52.07 41.62L48.5 41.62Z" id="aoxDYuveF"></path><path d="M62.56 61.95L62.56 61.6L64.08 61.6L64.08 61.95L63.56 61.95L63.56 63.48L63.09 63.48L63.09 61.95L62.56 61.95ZM64.67 63.48L64.67 62.19L64.67 62.19L65.14 63.48L65.49 63.48L65.96 62.19L65.96 62.19L65.96 63.48L66.37 63.48L66.37 61.6L65.73 61.6L65.32 62.77L64.85 61.6L64.2 61.6L64.2 63.48L64.67 63.48Z" id="dWUTUErWB"></path></defs><g><g><g><use xlink:href="#dzSuhX8dt" opacity="1" fill="#003e6b" fill-opacity="1"></use><g><use xlink:href="#dzSuhX8dt" opacity="1" fill-opacity="0" stroke="#000000" stroke-width="1" stroke-opacity="0"></use></g></g><g><use xlink:href="#g90BDfu9D" opacity="1" fill="#537398" fill-opacity="1"></use><g><use xlink:href="#g90BDfu9D" opacity="1" fill-opacity="0" stroke="#000000" stroke-width="1" stroke-opacity="0"></use></g></g><g><use xlink:href="#a8BbAIJhz" opacity="1" fill="#9babc4" fill-opacity="1"></use><g><use xlink:href="#a8BbAIJhz" opacity="1" fill-opacity="0" stroke="#000000" stroke-width="1" stroke-opacity="0"></use></g></g><g><use xlink:href="#aoxDYuveF" opacity="1" fill="#000000" fill-opacity="1"></use><g><use xlink:href="#aoxDYuveF" opacity="1" fill-opacity="0" stroke="#000000" stroke-width="1" stroke-opacity="0"></use></g></g><g><use xlink:href="#dWUTUErWB" opacity="1" fill="#003e6b" fill-opacity="1"></use><g><use xlink:href="#dWUTUErWB" opacity="1" fill-opacity="0" stroke="#000000" stroke-width="1" stroke-opacity="0"></use></g></g></g></g></svg>