<?xml version="1.0" encoding="UTF-8" standalone="no"?>
<!DOCTYPE svg PUBLIC "-//W3C//DTD SVG 1.1//EN" "http://www.w3.org/Graphics/SVG/1.1/DTD/svg11.dtd">
<svg version="1.1" xmlns="http://www.w3.org/2000/svg" xmlns:xlink="http://www.w3.org/1999/xlink" preserveAspectRatio="xMidYMid meet" viewBox="0 0 80 80" width="80" height="80"><defs><path d="M49.74 41.49C43.18 34.1 39.53 29.99 38.8 29.17C39.78 29.1 40.77 29.06 41.76 29.06C44.86 29.06 47.94 29.43 50.73 30.14C50.06 33.33 49.72 36.64 49.72 40C49.72 40.5 49.72 41 49.74 41.5M41.76 50.93C38.66 50.93 35.58 50.56 32.79 49.86C33.47 46.67 33.81 43.35 33.81 40C33.81 39.5 33.8 39 33.78 38.5C34.51 39.32 38.16 43.43 44.72 50.82C43.41 50.9 42.42 50.93 41.76 50.93ZM23.52 45.27C22.13 43.96 20.88 42.18 20.88 40C20.88 37.81 22.13 36.03 23.52 34.73C23.75 36.45 23.86 38.22 23.86 40C23.86 41.78 23.75 43.54 23.52 45.27M62.49 42.83C62.45 42.83 62.41 42.83 62.37 42.83C62.07 42.87 61.8 43.04 61.64 43.3C61.22 43.98 60.67 44.64 60 45.27C59.77 43.54 59.66 41.78 59.66 40C59.66 38.22 59.77 36.45 60 34.73C60.67 35.36 61.22 36.02 61.64 36.7C61.8 36.96 62.07 37.13 62.37 37.16C62.41 37.17 62.45 37.17 62.49 37.17C62.75 37.17 63 37.06 63.19 36.88C63.75 36.32 68.2 31.86 68.76 31.31C69.12 30.95 69.15 30.38 68.83 29.98C67.26 28.02 65.24 26.26 62.83 24.74C63.25 23.83 63.72 22.97 64.22 22.17C64.36 21.94 64.4 21.67 64.34 21.41C64.27 21.15 64.1 20.92 63.87 20.79C61.63 19.47 59.15 18.35 56.52 17.47C56.42 17.44 56.31 17.42 56.2 17.42C55.86 17.42 55.53 17.6 55.35 17.91C54.81 18.82 54.31 19.78 53.84 20.78C50.02 19.67 45.96 19.12 41.76 19.12C38.06 19.12 34.45 19.55 31.02 20.41C30.77 20.13 28.78 17.89 28.53 17.61C28.34 17.39 28.07 17.27 27.79 17.27C27.69 17.27 27.58 17.29 27.48 17.32C24.67 18.22 22.04 19.39 19.65 20.79C19.39 20.94 19.22 21.2 19.17 21.49C19.13 21.76 19.2 22.03 19.35 22.24C19.83 23.02 20.28 23.85 20.7 24.74C14.48 28.67 10.94 34.2 10.94 40C10.94 45.81 14.48 51.33 20.7 55.26C20.27 56.17 19.81 57.03 19.31 57.83C19.17 58.06 19.13 58.33 19.19 58.59C19.26 58.85 19.42 59.07 19.65 59.21C21.9 60.53 24.37 61.65 27.01 62.52C27.11 62.56 27.22 62.58 27.32 62.58C27.67 62.58 28 62.4 28.18 62.08C28.71 61.17 29.22 60.21 29.69 59.22C33.51 60.32 37.57 60.88 41.77 60.88C45.47 60.88 49.08 60.45 52.51 59.58C52.76 59.87 54.75 62.11 55 62.4C55.19 62.61 55.47 62.73 55.74 62.73C55.85 62.73 55.95 62.71 56.05 62.68C58.86 61.78 61.49 60.61 63.88 59.21C64.14 59.06 64.31 58.8 64.36 58.51C64.4 58.24 64.34 57.97 64.18 57.76C63.7 56.98 63.25 56.14 62.83 55.26C65.25 53.74 67.26 51.97 68.84 50.02C69.16 49.62 69.13 49.05 68.77 48.69C68.4 48.32 66.54 46.47 63.2 43.13C62.9 42.93 62.66 42.83 62.49 42.83Z" id="a1EFC0lL4t"></path><path d="M59.28 47.14C58.88 44.87 58.66 42.48 58.66 40C58.66 37.52 58.88 35.12 59.28 32.85C60.65 33.85 61.74 34.97 62.49 36.17C63.05 35.62 67.5 31.16 68.06 30.61C66.39 28.53 64.18 26.68 61.56 25.13C62.1 23.88 62.71 22.72 63.37 21.65C61.2 20.37 58.79 19.28 56.2 18.42C55.54 19.54 54.94 20.73 54.38 21.98C50.55 20.78 46.27 20.11 41.76 20.11C37.84 20.11 34.11 20.62 30.68 21.53C30.39 21.2 28.07 18.59 27.78 18.26C25.03 19.15 22.46 20.29 20.16 21.65C20.16 21.65 20.17 21.66 20.17 21.66C20.83 22.73 21.43 23.89 21.97 25.13C15.82 28.77 11.94 34.08 11.94 40C11.94 45.92 15.82 51.23 21.97 54.87C21.43 56.12 20.82 57.28 20.16 58.35C22.34 59.63 24.74 60.72 27.33 61.58C27.99 60.45 28.59 59.26 29.15 58.02C32.98 59.22 37.26 59.89 41.77 59.89C45.69 59.89 49.42 59.38 52.85 58.47C53.14 58.79 55.46 61.41 55.75 61.73C58.51 60.85 61.08 59.7 63.38 58.35C63.38 58.35 63.37 58.34 63.37 58.34C62.71 57.27 62.11 56.11 61.57 54.87C64.19 53.32 66.4 51.47 68.07 49.39C67.51 48.83 63.06 44.38 62.5 43.82C61.75 45.02 60.66 46.14 59.29 47.14M24.25 47.14C21.52 45.14 19.9 42.67 19.9 39.99C19.9 37.31 21.52 34.84 24.25 32.84C24.65 35.11 24.87 37.51 24.87 39.99C24.87 42.47 24.65 44.87 24.25 47.14M41.77 51.92C38.11 51.92 34.66 51.43 31.63 50.56C32.4 47.24 32.82 43.68 32.82 39.99C32.82 38.53 32.76 37.09 32.63 35.68C34.04 37.28 45.35 50.01 46.77 51.61C45.16 51.81 43.49 51.92 41.77 51.92M50.91 44.3C42.43 34.74 37.72 29.43 36.78 28.37C38.38 28.17 40.05 28.06 41.77 28.06C45.43 28.06 48.88 28.55 51.91 29.42C51.14 32.74 50.72 36.3 50.72 39.99C50.72 41.45 50.79 42.89 50.91 44.3" id="a97NgsUoO"></path></defs><g><g><g><use xlink:href="#a1EFC0lL4t" opacity="1" fill="#13294b" fill-opacity="1"></use><g><use xlink:href="#a1EFC0lL4t" opacity="1" fill-opacity="0" stroke="#000000" stroke-width="1" stroke-opacity="0"></use></g></g><g><use xlink:href="#a97NgsUoO" opacity="1" fill="#7bafd4" fill-opacity="1"></use><g><use xlink:href="#a97NgsUoO" opacity="1" fill-opacity="0" stroke="#000000" stroke-width="1" stroke-opacity="0"></use></g></g></g></g></svg>